PathFileType	4	(X/Y/Z)	..\data\2015043\dynamic\2015043_C5_05.trc
DataRate	CameraRate	NumFrames	NumMarkers	Units	OrigDataRate	OrigDataStartFrame	OrigNumFrames
100.000000	100.000000	4	52	mm	100.000000	125	167
Frame#	Time	L_IAS			L_IPS			R_IPS			R_IAS			L_FTC			L_FLE			L_FME			L_FAX			L_TTC			L_FAL			L_TAM			L_FCC			L_FM1			L_FM2			L_FM5			R_FTC			R_FLE			R_FME			R_FAX			R_TTC			R_FAL			R_TAM			R_FCC			R_FM1			R_FM2			R_FM5			CV7			TV10			SXS			SJN			L_SIA			L_SRS			L_SAA			L_SAE			L_HLE			L_HME			L_UOA			L_RSP			L_UHE			L_HM2			L_HM5			R_SIA			R_SRS			R_SAA			R_SAE			R_HLE			R_HME			R_UOA			R_RSP			R_UHE			R_HM2			R_HM5			
		X1	Y1	Z1	X2	Y2	Z2	X3	Y3	Z3	X4	Y4	Z4	X5	Y5	Z5	X6	Y6	Z6	X7	Y7	Z7	X8	Y8	Z8	X9	Y9	Z9	X10	Y10	Z10	X11	Y11	Z11	X12	Y12	Z12	X13	Y13	Z13	X14	Y14	Z14	X15	Y15	Z15	X16	Y16	Z16	X17	Y17	Z17	X18	Y18	Z18	X19	Y19	Z19	X20	Y20	Z20	X21	Y21	Z21	X22	Y22	Z22	X23	Y23	Z23	X24	Y24	Z24	X25	Y25	Z25	X26	Y26	Z26	X27	Y27	Z27	X28	Y28	Z28	X29	Y29	Z29	X30	Y30	Z30	X31	Y31	Z31	X32	Y32	Z32	X33	Y33	Z33	X34	Y34	Z34	X35	Y35	Z35	X36	Y36	Z36	X37	Y37	Z37	X38	Y38	Z38	X39	Y39	Z39	X40	Y40	Z40	X41	Y41	Z41	X42	Y42	Z42	X43	Y43	Z43	X44	Y44	Z44	X45	Y45	Z45	X46	Y46	Z46	X47	Y47	Z47	X48	Y48	Z48	X49	Y49	Z49	X50	Y50	Z50	X51	Y51	Z51	X52	Y52	Z52	

126	1.25	366.3273925781251	971.298767089844	118.8043518066407	188.7534637451172	992.3767089843752	200.4605865478516	195.7738037109375	999.5955810546877	298.3361206054688	376.1682739257812	989.2051391601565	358.6332092285157	264.1211547851563	876.1026000976565	67.87790679931645	243.6854248046876	467.1680603027345	65.17063903808598	277.5320739746094	438.0799560546876	180.584457397461	193.3053741455079	419.5859375000001	64.11487579345707	240.5060424804688	361.3452758789063	99.53440093994146	-72.67292022705081	205.9845733642579	137.3516082763672	-23.50087356567386	175.0938262939453	212.155746459961	-126.9485702514649	204.7570037841797	198.2876586914063	-21.48321914672854	39.76584625244141	196.3710632324219	-23.60273742675783	53.58187103271486	132.8251953125	-70.42238616943362	75.82871246337892	98.54959106445314	287.1098022460938	896.8902587890627	416.4188842773439	426.8966064453126	485.2295227050782	376.0033569335939	439.4037475585938	487.620086669922	253.8428802490236	426.3865661621094	416.5195312500001	377.9914855957032	494.4843444824219	418.4418334960939	319.2689819335939	416.0208129882813	71.22403717041017	320.554901123047	458.0808410644532	92.4998016357422	236.2200317382814	376.4895324707031	24.55032348632813	266.3000488281251	584.2532958984376	22.62202835083008	266.1930541992189	574.6575317382814	31.15812301635743	322.1399841308595	513.2056884765626	19.37248611450196	369.5697326660157	243.8200836181641	1496.095703125	250.3952941894532	185.9238739013672	1267.11865234375	245.5472717285157	414.6575622558594	1267.279907226563	250.9727478027345	361.6294250488281	1418.560791015625	257.9495849609376	162.9456787109375	1296.131103515625	148.7795715332032	188.2168579101562	1422.97412109375	154.9982604980469	246.7029113769532	1432.495361328125	68.37557983398442	289.1291503906251	1437.160034179688	49.54821014404302	316.7454223632813	1110.941162109375	-45.47832107543942	275.9709472656251	1084.536743164063	32.69219589233403	280.3251647949219	1063.448364257813	-29.17412948608396	508.8517150878907	935.6439208984377	45.17868041992195	487.6353759765626	906.2064208984377	-22.05466651916498	577.5689086914064	872.8035278320315	54.64822769165048	510.2840881347657	838.8059692382815	-14.91863727569574	152.3661193847656	1293.317260742188	320.7578430175782	180.0296783447266	1415.99609375	328.3666992187501	211.1910705566406	1417.204223632813	426.1041259765626	239.6524963378906	1411.945678710938	463.3741455078127	181.6888885498047	1086.146850585938	503.8862915039064	163.3537292480468	1082.433959960938	431.4552001953126	152.1402282714843	1060.73779296875	465.4675903320314	291.7554931640625	834.6291503906252	478.9157104492189	216.4349517822266	829.5969238281252	511.0589904785157	313.9105529785156	748.8737182617189	483.4505615234377	214.0055847167969	755.7478637695314	514.0287475585939	
127	1.26	378.1941833496094	972.4161376953127	120.1422958374024	200.8612670898438	993.4577636718752	202.2364349365235	208.2872924804688	1001.323425292969	299.9294433593751	388.8998718261719	990.628356933594	359.9266967773439	276.8665466308594	876.5969848632815	69.70691680908207	266.4878540039063	467.4085998535157	64.18468475341801	301.9673767089844	437.7861328125001	179.1065673828126	216.5097656250001	420.6573181152345	63.11714553833012	263.4135742187501	361.5588073730469	98.0354843139649	-53.38028717041018	213.7675476074219	138.2855224609375	-4.171423435211208	180.6050262451172	212.3112487792969	-106.9910964965821	213.8573760986329	200.1430206298829	-7.6664471626282	44.41315078735352	193.5687103271485	-10.03487968444826	59.12133789062501	130.6099853515625	-55.92050552368167	84.62363433837892	97.51721954345706	299.4234619140625	898.7312622070315	418.1136474609377	433.8429260253907	485.2232666015626	376.8377685546876	446.2299194335938	487.6794433593751	254.6375274658204	432.1943359375001	416.4383239746095	378.5882568359376	500.3107604980469	417.5254821777345	319.9980468750001	416.5702209472657	71.50931549072267	320.4929809570314	458.6500854492188	92.50544738769533	236.125457763672	376.89794921875	24.80854797363282	266.3795166015626	584.5772094726564	22.43365287780762	265.807830810547	575.2221679687501	31.31550598144532	322.1157531738282	513.4436035156251	19.68350982666016	369.8993530273439	256.6117858886719	1497.201782226563	251.8267822265626	198.3326873779297	1268.355102539063	247.0643005371095	427.1269836425782	1268.691040039063	251.7830810546876	373.9951171875	1419.93994140625	259.3796691894532	175.1945037841797	1297.584594726563	150.4981536865235	200.4894104003907	1424.61328125	156.836410522461	258.5765380859376	1434.480102539063	70.20076751708989	300.9087219238282	1439.212646484375	51.18606185913091	325.0595397949219	1112.682373046875	-44.09681701660153	284.5475769042969	1086.916625976563	34.480884552002	288.0401000976563	1065.884521484375	-27.45814704895017	514.6683959960939	933.3710937500002	44.38246154785163	492.5746459960939	904.876403808594	-22.98007202148432	582.1821899414064	868.8500976562502	53.24559783935555	513.6591186523439	836.971618652344	-16.40863418579096	165.0155029296875	1294.12109375	322.3382568359376	192.5102691650391	1416.830078125	330.2426757812501	223.9353942871094	1417.748046875	427.923553466797	252.5333251953125	1412.47265625	465.129608154297	195.4821472167969	1086.50146484375	505.3878173828126	177.1168670654297	1082.741577148438	432.986297607422	166.0193328857422	1061.018798828125	467.017059326172	306.4292602539062	835.2807617187502	480.4293823242189	230.9795989990234	830.0566406250002	512.4715576171876	328.7725524902344	749.6342773437501	485.1423950195314	228.7730255126953	756.2158813476564	515.4341430664064	
128	1.27	389.6907348632814	973.7342529296877	121.3435287475587	212.6608276367188	994.6167602539065	204.0456848144532	220.559814453125	1003.022155761719	301.5305480957032	401.3811035156251	992.0296020507815	361.1360473632814	289.3131103515626	877.3536376953127	71.44462585449223	289.5558166503907	468.022674560547	63.37775039672857	326.3427124023438	438.1845703125001	177.9539337158204	240.1072845458985	421.9530639648439	62.29353713989262	286.9034729003907	362.2215576171876	96.90966796875006	-32.82237243652346	220.8686676025391	139.2659454345703	16.30279541015623	185.7540893554688	212.6635284423829	-85.97131347656254	221.742416381836	201.8385467529297	8.696929931640604	49.06357955932619	190.5936431884766	6.156511783599839	64.80931854248048	128.2644805908203	-39.01790618896487	93.11788940429689	96.28637695312503	311.4598999023438	900.4544067382815	419.6754760742189	440.0601806640626	485.1498107910157	377.626922607422	452.4092102050782	487.637908935547	255.3796844482423	437.2830810546876	416.2975158691407	379.1639404296876	505.4678649902344	416.5849609375001	320.7337646484376	416.9025878906251	71.73022460937501	320.4001464843751	459.0192871093751	92.5035858154297	236.0294799804689	377.162109375	24.97821807861329	266.3849487304689	584.7316894531251	22.4637622833252	265.522918701172	575.5610961914064	31.6048755645752	322.1141662597657	513.5427246093751	19.98023223876953	370.1434326171876	269.35595703125	1498.430297851563	253.1141510009766	210.5326385498047	1269.744995117188	248.5993652343751	439.3554992675782	1270.08349609375	252.4580383300782	386.2632446289063	1421.36279296875	260.6506347656251	187.2128448486328	1299.189331054688	152.1996154785157	212.6360473632813	1426.38037109375	158.6081695556641	270.2949218750001	1436.485717773438	71.91350555419926	312.5431518554688	1441.24658203125	52.70466613769536	333.3097839355469	1114.443237304688	-42.87962722778317	292.9797058105469	1089.268920898438	36.00044250488286	295.6780395507813	1068.355712890625	-25.95460510253903	520.1594848632814	931.0952148437502	43.45986557006843	497.265350341797	903.593444824219	-24.04464340209956	586.3999633789064	864.9241333007815	51.77233886718759	516.7324829101564	835.195983886719	-18.01434326171869	177.4773101806641	1295.162719726563	323.9464721679688	204.9052734375	1417.88623046875	332.0662231445313	236.6759796142578	1418.494506835938	429.6796875000002	265.4439086914062	1413.181396484375	466.8034057617189	209.4420471191406	1086.976196289063	506.8751831054689	190.9967498779297	1083.14892578125	434.5139770507814	180.0435791015625	1061.413940429688	468.5690307617189	321.358642578125	836.1101684570315	481.9219970703127	245.8022613525391	830.6639404296877	513.8966064453126	343.955810546875	750.5932006835939	486.861053466797	243.8654937744141	756.8323364257814	516.9031372070314	
129	1.28	400.873748779297	975.2546386718752	122.4169998168946	224.1953887939453	995.874450683594	205.8530273437501	232.6144104003907	1004.692016601563	303.119842529297	413.6301269531251	993.4072875976565	362.2644348144532	301.5189208984376	878.3975219726565	73.06346893310553	312.7680969238282	469.0597229003907	62.75215911865239	350.5309753417969	439.2984008789064	177.1407623291016	263.9395751953126	423.5138549804689	61.64907836914067	310.8558959960938	363.3634338378907	96.1284255981446	-11.1114082336426	227.1074676513672	140.2286529541016	37.85800933837888	190.4096374511719	213.1505737304688	-64.02073669433598	228.2547760009766	203.302474975586	27.58725738525389	53.50931549072267	187.6093139648438	24.94546699523925	70.37651824951173	125.9132308959961	-19.74937820434572	100.9608535766602	94.94168853759767	323.2349243164062	902.0572509765627	421.0915832519533	445.5942993164063	485.0289916992189	378.3728637695314	457.9836730957032	487.5155334472657	256.0766906738282	441.7109375000001	416.1191406250001	379.7242736816407	510.0066833496094	415.641571044922	321.4741210937501	417.0668029785157	71.88905334472658	320.2929687500001	459.2480163574219	92.48223114013673	235.9446868896486	377.2911376953125	25.0929183959961	266.3367614746095	584.7571411132814	22.61271858215332	265.3462524414064	575.7184448242189	31.92765808105469	322.1467285156251	513.5238037109376	20.21014976501465	370.3231811523439	282.00048828125	1499.789428710938	254.2996520996095	222.5365600585938	1271.273559570313	250.1563873291016	451.3500671386719	1271.469970703125	253.0121917724611	398.4225463867188	1422.83447265625	261.7676086425782	199.00830078125	1300.93115234375	153.8889465332032	224.6294250488282	1428.259155273438	160.3284759521485	281.8443908691407	1438.507202148438	73.5224990844727	324.0113525390626	1443.26123046875	54.11122512817388	341.5023498535157	1116.228271484375	-41.820930480957	301.2766418457032	1091.594360351563	37.25566101074223	303.2580566406251	1070.864501953125	-24.66521453857419	525.3446655273439	928.8450317382815	42.41537857055671	501.7286071777345	902.3789672851565	-25.24425315856928	590.2357788085939	861.0647583007815	50.22575759887704	519.5357055664064	833.5036621093752	-19.7309951782226	189.7540130615234	1296.437255859375	325.5964355468751	217.2116394042969	1419.161987304688	333.8414611816407	249.4048309326172	1419.458618164063	431.3736572265627	278.3731079101562	1414.091186523438	468.3960266113283	223.5568389892578	1087.590942382813	508.3471679687501	204.9805450439453	1083.682006835938	436.0377807617189	194.1920623779297	1061.947143554688	470.1170959472657	336.5247497558594	837.1401977539065	483.3838500976564	260.8877563476562	831.4394531250002	515.3250732421876	359.441162109375	751.7683715820314	488.5845947265627	259.2654418945312	757.6193237304689	518.4252319335939	
